{"title":"Masterpiece_Mystery_(The Soul of Genius)_720p.HDTV.x264_TTL","uid":7428252,"size":1920266435,"categoryP":"video","categoryS":"hd___tv_shows","magnet":"?xt=urn:btih:6827b135ce88596c3095b8ccfb76b8bb6b137f11&amp;dn=Masterpiece_Mystery_%28The+Soul+of+Genius%29_720p.HDTV.x264_TTL&amp;tr=udp%3A%2F%2Ftracker.openbittorrent.com%3A80&amp;tr=udp%3A%2F%2Fopen.demonii.com%3A1337&amp;tr=udp%3A%2F%2Ftracker.coppersurfer.tk%3A6969&amp;tr=udp%3A%2F%2Fexodus.desync.com%3A6969","seeders":0,"leechers":1,"uploader":"thetorrentlord","files":-1,"time":1341869656,"description":"This is from the American PBS debut on 7-08-2012.\t\t\t\t\t\t\t\t\t\t\t\t\t\t\t\t\t\n\nKevin Whately returns as Inspector Lewis teamed with his cool, cerebral partner Detective Sergeant Hathaway (Laurence Fox). Lewis, the former working-class foil to the erudite Detective Inspector Morse, tackles murder and mayhem with the help of Hathaway.\n\nIn the all-new 2012 season, Lewis and Hathaway tackle four cases in the seemingly perfect academic haven of Oxford: The Soul of Genius (July 8), Generation of Vipers (July 15), Fearful Symmetry (July 22) and The Indelible Stain (July 29). Guest stars include Toby Stephens (Jane Eyre), James Fleet (Little Dorrit) and Celia Imrie (Cranford).\n\nAlso, don't miss the following encore presentations from Inspector Lewis, Series IV: The Mind Has Mountains (Aug 26) and The Gift of Promise (Sept. 2).\n\t\t\t\t\t\t\t\t\t\t\t\t\t\t\t\t\t\t\t\t\t\t\t\t\t\t\t\t\t\t\t\t\t\t\t\t\t\t\t\t\t\t\t\t\t\t\t\t\t\t\t\t\t\t\t\t\t\tAll the extras are in separate files. \t\t\t\t\t\t\t\t\t\t\t\t\t\t\t\t\t\t\t\t\t\t\t\t\t\t\t\t\t\t\t\t\t\t\t\t\t\t\t\t\t\t\t\t\t\t\t\t\t\t\t\t\t\t\t\tEnjoy and please share.\t\t\t\t\t\t\t\t\t\t\t\t\t\t\t\t\t\t\t\t\t\t\t\t\t\t\t\t\t\t\t\t\t\t\t\t\t\t\t\t\t\t\t\t\t\t\t\t\t\t\t\t\t\t\t\t\t\t\t\t\t\t\t\t\t\t\t\t\t\t\t\t\t\t\t\t\t\t\t\t\tMasterpiece_Mystery_(The Soul of Genius)_720p.HDTV.x264_TTL.mkv\nFormat                           : Matroska\nFile size                        : 1.72 GiB\nDuration                         : 1h 20mn\nOverall bit rate                 : 3 077 Kbps\nWriting application              : HandBrake 0.9.5\nWriting library                  : libmkv 0.6.4.1\n\nVideo\nID                               : 1\nFormat                           : AVC\nFormat/Info                      : Advanced Video Codec\nFormat profile                   : &lt;a class=&quot;__cf_email__&quot; href=&quot;/cdn-cgi/l/email-protection&quot; data-cfemail=&quot;bef6d7d9d6fef28d908f&quot;&gt;[email&amp;#160;protected]&lt;/a&gt;&lt;script cf-hash='f9e31' type=&quot;text/javascript&quot;&gt;\n/* &lt;![CDATA[ */!function(){try{var t=&quot;currentScript&quot;in document?document.currentScript:function(){for(var t=document.getElementsByTagName(&quot;script&quot;),e=t.length;e--;)if(t[e].getAttribute(&quot;cf-hash&quot;))return t[e]}();if(t&amp;&amp;t.previousSibling){var e,r,n,i,c=t.previousSibling,a=c.getAttribute(&quot;data-cfemail&quot;);if(a){for(e=&quot;&quot;,r=parseInt(a.substr(0,2),16),n=2;a.length-n;n+=2)i=parseInt(a.substr(n,2),16)^r,e+=String.fromCharCode(i);e=document.createTextNode(e),c.parentNode.replaceChild(e,c)}}}catch(u){}}();/* ]]&gt; */&lt;/script&gt;\nFormat settings, CABAC           : Yes\nFormat settings, ReFrames        : 4 frames\nMuxing mode                      : Container profile=&lt;a class=&quot;__cf_email__&quot; href=&quot;/cdn-cgi/l/email-protection&quot; data-cfemail=&quot;7d28131613120a133d4e534c&quot;&gt;[email&amp;#160;protected]&lt;/a&gt;&lt;script cf-hash='f9e31' type=&quot;text/javascript&quot;&gt;\n/* &lt;![CDATA[ */!function(){try{var t=&quot;currentScript&quot;in document?document.currentScript:function(){for(var t=document.getElementsByTagName(&quot;script&quot;),e=t.length;e--;)if(t[e].getAttribute(&quot;cf-hash&quot;))return t[e]}();if(t&amp;&amp;t.previousSibling){var e,r,n,i,c=t.previousSibling,a=c.getAttribute(&quot;data-cfemail&quot;);if(a){for(e=&quot;&quot;,r=parseInt(a.substr(0,2),16),n=2;a.length-n;n+=2)i=parseInt(a.substr(n,2),16)^r,e+=String.fromCharCode(i);e=document.createTextNode(e),c.parentNode.replaceChild(e,c)}}}catch(u){}}();/* ]]&gt; */&lt;/script&gt;\nCodec ID                         : V_MPEG4/ISO/AVC\nDuration                         : 1h 20mn\nBit rate                         : 2 792 Kbps\nNominal bit rate                 : 2 847 Kbps\nWidth                            : 1 280 pixels\nHeight                           : 720 pixels\nDisplay aspect ratio             : 16:9\nFrame rate mode                  : Variable\nFrame rate                       : 29.970 fps\nResolution                       : 8 bits\nColorimetry                      : 4:2:0\nScan type                        : Progressive\nBits/(Pixel*Frame)               : 0.101\nStream size                      : 1.56 GiB (91%)\nWriting library                  : x264 core 112\n\nAudio\nID                               : 2\nFormat                           : AC-3\nFormat/Info                      : Audio Coding 3\nCodec ID                         : A_AC3\nDuration                         : 1h 20mn\nBit rate mode                    : Constant\nBit rate                         : 224 Kbps\nChannel(s)                       : 2 channels\nChannel positions                : L R\nSampling rate                    : 48.0 KHz\nStream size                      : 128 MiB (7%)\n\n\n\n","torrent":{"xt":"urn:btih:6827b135ce88596c3095b8ccfb76b8bb6b137f11","amp;dn":"Masterpiece_Mystery_%28The+Soul+of+Genius%29_720p.HDTV.x264_TTL","amp;tr":["udp%3A%2F%2Ftracker.openbittorrent.com%3A80","udp%3A%2F%2Fopen.demonii.com%3A1337","udp%3A%2F%2Ftracker.coppersurfer.tk%3A6969","udp%3A%2F%2Fexodus.desync.com%3A6969"],"infoHash":"6827b135ce88596c3095b8ccfb76b8bb6b137f11","infoHashBuffer":{"type":"Buffer","data":[104,39,177,53,206,136,89,108,48,149,184,204,251,118,184,187,107,19,127,17]},"announce":[],"urlList":[]}}